<svg xmlns="http://www.w3.org/2000/svg" xmlns:xlink="http://www.w3.org/1999/xlink" width="3000" zoomAndPan="magnify" viewBox="0 0 375 374.999991" height="3000" preserveAspectRatio="xMidYMid meet" version="1.0"><defs><clipPath id="4dce0ffd13"><path d="M 146.292969 139.886719 L 228.792969 139.886719 L 228.792969 235.136719 L 146.292969 235.136719 Z M 146.292969 139.886719 " clip-rule="nonzero"/></clipPath></defs><g clip-path="url(#4dce0ffd13)"><path fill="#05d584" d="M 187.664062 160.898438 L 173.769531 169.03125 L 173.769531 158.523438 L 187.664062 150.390625 L 219.519531 169.03125 L 219.519531 205.96875 L 187.664062 224.609375 L 155.472656 205.96875 L 155.472656 179.535156 L 146.320312 184.957031 L 146.320312 211.390625 L 166.992188 223.253906 L 187.664062 235.113281 L 208.335938 223.253906 L 228.671875 211.390625 L 228.671875 163.609375 L 208.335938 151.746094 L 187.664062 139.886719 L 166.992188 151.746094 L 164.621094 153.101562 L 164.621094 200.886719 L 187.664062 214.101562 L 210.371094 200.886719 L 201.21875 195.464844 L 187.664062 203.257812 L 173.769531 195.464844 L 173.769531 179.535156 L 187.664062 171.742188 L 201.21875 179.535156 L 210.371094 174.113281 Z M 155.472656 169.03125 L 155.472656 158.523438 L 146.320312 163.609375 L 146.320312 174.113281 Z M 155.472656 169.03125 " fill-opacity="1" fill-rule="evenodd"/></g></svg>